<svg width="43" height="32" viewBox="0 0 43 32" fill="none" xmlns="http://www.w3.org/2000/svg">
<path d="M35.3756 8.07323C30.5382 5.95435 25.1868 6.4571 23.7444 11.556C23.6529 11.949 23.8961 12.3421 24.2892 12.4353C24.6822 12.5286 25.0753 12.2836 25.1686 11.8905C25.4958 10.4974 26.4702 9.34929 27.7737 8.81729C29.6769 8.0458 32.0426 8.24687 34.8034 9.42062C36.7066 10.2269 37.6884 12.1575 37.7231 15.1595C37.7944 21.3281 33.9095 28.9077 31.5274 29.9827C30.0776 30.6354 28.8875 30.6939 28.0831 30.1546C27.2951 29.6281 26.8746 28.4781 26.9276 26.9936C26.913 26.0393 25.5181 26.0521 25.465 26.9753C25.231 31.1674 28.4944 33.1088 32.1287 31.3173C36.7632 29.2185 43.5475 11.7207 35.3756 8.0753V8.07323Z" fill="#9FD50C"/>
<path d="M23.9273 6.30692C25.1687 7.64336 27.2035 7.3691 28.0335 5.72555C28.8397 4.28493 28.5198 2.01427 27.3442 0.853433C26.0882 -0.486656 24.0717 -0.205094 23.2381 1.43481C22.4318 2.87543 22.7517 5.14609 23.9273 6.30692ZM24.5288 2.12397C24.8872 1.37256 25.7263 1.22996 26.2985 1.87351C27.0316 2.59384 27.251 4.14051 26.7464 5.03631C26.3844 5.79685 25.538 5.92298 24.9767 5.28678C24.2436 4.56644 24.0242 3.01977 24.5288 2.12397Z" fill="#9FD50C"/>
<path d="M30.8105 5.96901C33.7484 6.30723 34.5839 0.758512 31.5015 0.255855C28.3789 0.0108737 27.889 5.6091 30.8105 5.96901ZM30.3223 3.01096C30.5801 1.1846 32.1724 1.38019 31.9878 3.21207C31.7081 5.04395 30.1633 4.86662 30.3223 3.01096Z" fill="#9FD50C"/>
<path d="M34.9296 6.81006C37.5915 7.40056 38.7835 2.60698 36.1746 1.87382C33.436 1.29974 32.3738 6.1573 34.9296 6.81006ZM34.9753 4.19573C35.3757 2.83186 36.4251 3.09878 36.1308 4.48641C35.8218 5.68754 34.692 5.76435 34.9753 4.19573Z" fill="#9FD50C"/>
<path d="M37.1359 6.06026C35.7702 8.74591 38.9751 10.4297 40.4212 7.80621C41.785 5.12969 38.5893 3.43128 37.1359 6.06026ZM38.4266 6.74582C39.4449 5.27229 39.5802 7.16813 38.6515 7.61423C38.1268 7.85555 38.2474 7.04016 38.4266 6.74582Z" fill="#9FD50C"/>
<path d="M42.0501 8.44626C40.1615 7.20857 37.8708 10.5615 39.71 11.8723C41.6168 13.1082 43.8801 9.75344 42.0501 8.44626ZM41.0866 10.3C40.8617 10.6291 40.5802 10.6858 40.5345 10.6639C40.4906 10.6236 40.4504 10.3421 40.6716 10.0167C41.1213 9.42617 41.5052 9.57607 41.0866 10.3Z" fill="#9FD50C"/>
<path d="M16.8485 27.0591C16.4426 27.028 16.0952 27.3315 16.0642 27.7337C15.8466 30.4559 13.9837 31.1378 11.4772 29.9805C8.40212 28.9586 1.19893 12.8083 8.20101 9.41844C12.2944 7.66336 16.7827 7.75842 17.8886 12.1041C18.0769 13.0493 19.4883 12.7805 19.3256 11.8372C18.0824 6.53729 12.5449 5.89002 7.63063 8.07287C-0.890652 11.8207 6.53737 32.6932 13.6105 31.9823C16.0531 31.9183 17.2816 30.3277 17.5229 27.8432C17.554 27.441 17.2507 27.0901 16.8485 27.0591Z" fill="#9FD50C"/>
<path d="M16.8667 7.14422C20.5999 7.53363 21.5563 0.668662 17.8759 0.016239C14.1518 -0.376825 13.1811 6.48993 16.8667 7.14422ZM16.0166 3.38909C16.4974 0.608381 19.0331 0.968524 18.7242 3.77119C18.2434 6.5519 15.7077 6.19175 16.0166 3.38909Z" fill="#9FD50C"/>
<path d="M11.9633 5.98353C15.1133 5.93052 14.7367 0.00876017 11.5062 0.255876C8.52438 0.73485 9.19717 6.00366 11.9633 5.98353ZM11.2045 2.09675C11.7694 1.10038 12.6525 2.24118 12.6836 3.01267C12.8408 4.86463 11.3051 5.05114 11.0181 3.21377C10.9687 2.80425 11.0363 2.39656 11.2045 2.09675Z" fill="#9FD50C"/>
<path d="M6.39099 6.37853C9.1315 8.29634 10.6873 4.08231 8.51722 2.30528C5.70726 0.374687 4.26664 4.6856 6.39099 6.37853ZM6.90839 3.60147C6.9413 3.52103 7.03271 3.3309 7.18994 3.29067C7.33436 3.25045 7.51901 3.37294 7.58483 3.42962C8.1333 3.79709 8.28139 5.22673 7.72012 5.38947C6.96141 5.36021 6.67437 4.18651 6.9102 3.59965L6.90839 3.60147Z" fill="#9FD50C"/>
<path d="M3.71618 8.93068C6.56087 10.0203 6.97221 5.96351 4.73998 4.93601C1.88795 3.84641 1.49125 7.91053 3.71618 8.93068ZM3.84598 6.21577C4.42371 6.1463 4.98314 7.22127 4.60835 7.65274C4.03979 7.72587 3.46572 6.64542 3.84598 6.21577Z" fill="#9FD50C"/>
<path d="M3.54072 9.1937C1.95749 6.95781 -0.795789 8.8372 0.710634 11.1261C2.28656 13.3565 5.04714 11.4899 3.54072 9.1937ZM2.46937 10.6636C2.42366 10.6873 2.14212 10.6288 1.91724 10.2998C1.6942 9.97434 1.73625 9.69278 1.78013 9.65257C1.90627 9.63429 2.11835 9.72022 2.33225 10.0164C2.55347 10.3418 2.51324 10.6215 2.46937 10.6636Z" fill="#9FD50C"/>
<path d="M21.0349 13.3735C24.804 13.3735 27.86 16.4286 27.8601 20.1978C27.8601 23.9669 24.804 27.0229 21.0349 27.0229C17.2658 27.0229 14.2107 23.9669 14.2107 20.1978C14.2107 16.4287 17.2658 13.3736 21.0349 13.3735Z" stroke="#9FD50C" stroke-width="1.32742"/>
<path d="M18.2268 20.6659H21.0349M23.843 20.6659H21.0349M21.0349 20.6659V17.8577M21.0349 20.6659V23.474" stroke="#9FD50C" stroke-width="1.32742" stroke-linecap="round" stroke-linejoin="round"/>
</svg>
